<svg xmlns="http://www.w3.org/2000/svg" width="297.0mm" height="210.0mm" viewBox="0 0 297.0 210.0">
  <title>robot_face_gpt</title>
  <desc>Dry-run fixture for GPT-5.5 on robot_face.</desc>
  <g fill="none" stroke="black" stroke-width="0.35" stroke-linecap="round" stroke-linejoin="round">
    <polyline points="85.0,63.2 212.0,63.2 222.0,75.2 222.0,151.2 211.0,163.2 86.0,163.2 75.0,151.2 75.0,75.2 85.0,63.2"/>
    <circle cx="117.0" cy="103.2" r="11.4"/>
    <circle cx="181.0" cy="103.2" r="11.4"/>
    <polyline points="111.0,135.2 132.0,145.2 165.0,145.2 186.0,135.2"/>
    <line x1="148.5" y1="63.2" x2="148.5" y2="38.2"/>
    <circle cx="148.5" cy="32.2" r="5.5"/>
  </g>
<g xmlns:sodipodi="http://sodipodi.sourceforge.net/DTD/sodipodi-0.dtd" xmlns:cc="http://creativecommons.org/ns#" xmlns:ccOLD="http://web.resource.org/cc/" xmlns:dc="http://purl.org/dc/elements/1.1/" xmlns:rdf="http://www.w3.org/1999/02/22-rdf-syntax-ns#" xmlns:inkscape="http://www.inkscape.org/namespaces/inkscape" xmlns:xlink="http://www.w3.org/1999/xlink" transform="matrix(25.400000,0.000000,0.000000,25.400000,0.000000,-0.000000)" inkscape:groupmode="layer" inkscape:label="% Preview"><g inkscape:groupmode="layer" inkscape:label="Pen-up movement"><path xmlns:svg="http://www.w3.org/2000/svg" style="stroke-width:0.008268;fill:none;stroke-linejoin:round;stroke-linecap:round;stroke:LightPink" d="M0.000 0.000  0.021 0.016  0.063 0.047  0.125 0.093  0.209 0.156  0.313 0.233  2.693 2.002  3.033 2.255  3.137 2.333  3.221 2.395  3.284 2.442  3.326 2.473  3.346 2.488 M3.346 2.488  3.358 2.511  3.382 2.558  3.418 2.627  3.466 2.720  3.525 2.835  3.979 3.716  4.038 3.831  4.086 3.924  4.122 3.994  4.146 4.040  4.157 4.063 M4.157 4.063  4.184 4.063  4.236 4.063  4.314 4.063  4.418 4.063  4.548 4.063  6.286 4.063  6.417 4.063  6.521 4.063  6.599 4.063  6.651 4.063  6.677 4.063 M6.677 4.063  6.654 4.076  6.609 4.100  6.540 4.138  6.449 4.188  6.334 4.250  4.713 5.136  4.599 5.198  4.507 5.248  4.438 5.285  4.393 5.310  4.370 5.323 M7.323 5.323  7.311 5.300  7.287 5.254  7.251 5.184  7.203 5.092  7.142 4.976  6.027 2.835  5.967 2.719  5.919 2.627  5.883 2.557  5.859 2.511  5.846 2.488 M5.846 1.504  5.822 1.478  5.774 1.425  5.702 1.346  5.654 1.294  5.630 1.268 M5.630 1.268  5.605 1.262  5.554 1.250  5.477 1.233  5.376 1.210  5.249 1.182  2.356 0.531  0.381 0.086  0.254 0.057  0.153 0.034  0.076 0.017  0.025 0.006  0.000 -0.000" desc="pen-up transit"/></g><g inkscape:groupmode="layer" inkscape:label="Pen-down movement"><path xmlns:svg="http://www.w3.org/2000/svg" style="stroke-width:0.008268;fill:none;stroke-linejoin:round;stroke-linecap:round;stroke:Blue" d="M3.346 2.488  3.368 2.488  3.411 2.488  4.400 2.488  5.388 2.488  6.377 2.488  7.365 2.488  8.291 2.488  8.346 2.488  8.382 2.531  8.709 2.923  8.740 2.961  8.740 3.010  8.740 3.999  8.740 4.987  8.740 5.901  8.740 5.953  8.705 5.991  8.344 6.385  8.307 6.425  8.253 6.425  7.264 6.425  6.276 6.425  5.287 6.425  4.299 6.425  3.440 6.425  3.386 6.425  3.349 6.385  2.988 5.991  2.953 5.953  2.953 5.901  2.953 4.913  2.953 3.925  2.953 3.010  2.953 2.961  2.984 2.923  3.305 2.538  3.333 2.505  3.346 2.488 M4.157 4.063  4.161 4.123  4.173 4.180  4.192 4.235  4.218 4.287  4.250 4.336  4.288 4.380  4.332 4.419  4.382 4.452  4.435 4.478  4.491 4.497  4.548 4.508  4.606 4.512  4.664 4.508  4.722 4.497  4.777 4.478  4.831 4.452  4.880 4.419  4.924 4.380  4.963 4.336  4.995 4.287  5.021 4.235  5.039 4.180  5.051 4.123  5.055 4.063  5.051 4.003  5.039 3.946  5.021 3.891  4.995 3.839  4.963 3.790  4.924 3.746  4.880 3.707  4.831 3.674  4.777 3.648  4.722 3.629  4.664 3.618  4.606 3.614  4.548 3.618  4.491 3.629  4.435 3.648  4.382 3.674  4.332 3.707  4.288 3.746  4.250 3.790  4.218 3.839  4.192 3.891  4.173 3.946  4.161 4.003  4.159 4.043  4.157 4.063 M6.677 4.063  6.681 4.123  6.693 4.180  6.712 4.235  6.737 4.287  6.769 4.336  6.808 4.380  6.852 4.419  6.902 4.452  6.955 4.478  7.011 4.497  7.068 4.508  7.126 4.512  7.184 4.508  7.241 4.497  7.297 4.478  7.350 4.452  7.400 4.419  7.444 4.380  7.483 4.336  7.515 4.287  7.540 4.235  7.559 4.180  7.571 4.123  7.575 4.063  7.571 4.003  7.559 3.946  7.540 3.891  7.515 3.839  7.483 3.790  7.444 3.746  7.400 3.707  7.350 3.674  7.297 3.648  7.241 3.629  7.184 3.618  7.126 3.614  7.068 3.618  7.011 3.629  6.955 3.648  6.902 3.674  6.852 3.707  6.808 3.746  6.769 3.790  6.737 3.839  6.712 3.891  6.693 3.946  6.681 4.003  6.678 4.043  6.677 4.063 M4.370 5.323  4.390 5.332  4.430 5.352  5.197 5.717  6.225 5.717  6.496 5.717  7.263 5.352  7.303 5.332  7.323 5.323 M5.846 2.488  5.846 2.467  5.846 2.423  5.846 1.569  5.846 1.526  5.846 1.504 M5.630 1.268  5.632 1.296  5.637 1.324  5.647 1.351  5.659 1.376  5.674 1.399  5.693 1.421  5.714 1.439  5.738 1.455  5.764 1.468  5.791 1.477  5.818 1.482  5.846 1.484  5.875 1.482  5.902 1.477  5.929 1.468  5.955 1.455  5.979 1.439  6.000 1.421  6.018 1.399  6.034 1.376  6.046 1.351  6.056 1.324  6.061 1.296  6.063 1.268  6.061 1.239  6.056 1.211  6.046 1.185  6.034 1.159  6.018 1.136  6.000 1.115  5.979 1.096  5.955 1.080  5.929 1.068  5.902 1.059  5.875 1.053  5.846 1.051  5.818 1.053  5.791 1.059  5.764 1.068  5.738 1.080  5.714 1.096  5.693 1.115  5.674 1.136  5.659 1.159  5.647 1.185  5.637 1.211  5.632 1.239  5.630 1.268" desc="pen-down drawing"/></g></g><plotdata application="axidraw" model="1" plob_version="n/a" layer="-2" pause_dist="-25400" pause_ref="-25400" last_x="4.379760443207203e-14" last_y="-3.630706846280418e-14" rand_seed="1" row="0"/></svg>